# xmcd
#
# Track frame offsets:
# 150
# 5809
# 18562
# 33961
# 52085
# 62369
# 66318
# 79857
# 95111
# 107030
# 123476
# 128677
# 146224
# 162144
# 180339
# 187452
#
# Disc length: 2705 seconds
#
#
# Revision: 0
# Processed by: cddbd v1.5.2PL0 Copyright (c) Steve Scherf et al.
# Submitted via: FreeRIP 2.951 
#
DISCID=e70a8f10
DTITLE=Charlotte Darat - Lillop from mysoul - liplop from my soul 
DYEAR=0009
DGENRE=Ballad
TTITLE0=intro
TTITLE1=sobreviviendo
TTITLE2=respeto
TTITLE3=vuelve a casa
TTITLE4=combativo dos
TTITLE5=interludio
TTITLE6=raices
TTITLE7=solo en sueños
TTITLE8=historias de cabaret
TTITLE9=fueron tiempos
TTITLE10=spoken words
TTITLE11=equidad
TTITLE12=Es un dia normal
TTITLE13=encuentro
TTITLE14=dntro
TTITLE15=Ati mujer
EXTD=
EXTT0=
EXTT1=
EXTT2=
EXTT3=
EXTT4=
EXTT5=
EXTT6=
EXTT7=
EXTT8=
EXTT9=
EXTT10=
EXTT11=
EXTT12=
EXTT13=
EXTT14=
EXTT15=
PLAYORDER=
